<svg width="24" height="24" viewBox="0 0 24 24" fill="none" xmlns="http://www.w3.org/2000/svg">
<path fill-rule="evenodd" clip-rule="evenodd" d="M20.528 10.3737C20.158 9.73171 19.478 9.52071 18.829 9.42971C18.176 9.33871 17.301 9.33871 16.243 9.33871H16.183C15.553 9.33871 15.14 9.33171 14.84 9.29071C14.569 9.25271 14.483 9.19671 14.446 9.16371C14.419 9.13571 14.371 9.07071 14.338 8.83371C14.299 8.55371 14.298 8.17071 14.298 7.55671V7.18271C14.298 5.59471 14.298 4.32271 14.175 3.41671C14.061 2.56571 13.788 1.60971 12.844 1.31971C11.916 1.03571 11.138 1.64571 10.534 2.27371C9.88901 2.94371 9.12401 3.97871 8.16601 5.27471L5.02901 9.51971C4.41901 10.3447 3.90901 11.0337 3.60701 11.6027C3.30301 12.1727 3.08201 12.8507 3.41901 13.5267V13.5287L3.42301 13.5367L3.42701 13.5437L3.43101 13.5517L3.43601 13.5597L3.44001 13.5677L3.44401 13.5757L3.44901 13.5837L3.45301 13.5907L3.45401 13.5927C3.82201 14.2297 4.49801 14.4527 5.15301 14.5527C5.82701 14.6547 6.72701 14.6617 7.81801 14.6617C8.45501 14.6617 8.86001 14.6627 9.15801 14.7017C9.42201 14.7347 9.50101 14.7867 9.53401 14.8157C9.56401 14.8477 9.61701 14.9207 9.65401 15.1657C9.69601 15.4467 9.70301 15.8357 9.70301 16.4427V16.8177C9.70301 18.4047 9.70301 19.6777 9.82501 20.5837C9.94001 21.4337 10.212 22.3907 11.156 22.6797C12.084 22.9637 12.862 22.3547 13.466 21.7257C14.111 21.0557 14.876 20.0217 15.834 18.7247L18.934 14.5317C19.564 13.6777 20.084 12.9647 20.389 12.3717C20.689 11.7917 20.898 11.1097 20.564 10.4397L20.562 10.4377L20.559 10.4297L20.555 10.4217L20.551 10.4147L20.547 10.4057L20.542 10.3977L20.538 10.3907L20.533 10.3827L20.529 10.3757L20.528 10.3737ZM11.615 3.31371C11.046 3.90371 10.339 4.85871 9.33501 6.21671L6.27301 10.3597C5.61501 11.2497 5.17501 11.8487 4.93101 12.3077C4.81101 12.5307 4.76701 12.6717 4.75401 12.7577C4.74601 12.8107 4.75101 12.8337 4.75701 12.8497C4.78201 12.8847 4.88701 12.9937 5.37901 13.0697C5.91701 13.1517 6.69001 13.1617 7.81801 13.1617H7.86401C8.44101 13.1617 8.94401 13.1617 9.34801 13.2127C9.78101 13.2687 10.212 13.3937 10.568 13.7287L10.574 13.7347L10.58 13.7397C10.93 14.0837 11.072 14.5097 11.137 14.9427C11.199 15.3567 11.203 15.8657 11.203 16.4427V16.7527C11.203 18.4197 11.204 19.5887 11.311 20.3827C11.365 20.7787 11.436 21.0107 11.505 21.1397C11.556 21.2367 11.586 21.2437 11.595 21.2457H11.597C11.607 21.2497 11.645 21.2627 11.758 21.2057C11.9 21.1337 12.103 20.9797 12.386 20.6857C12.954 20.0957 13.662 19.1407 14.666 17.7827L17.727 13.6397C18.381 12.7547 18.817 12.1477 19.057 11.6837C19.261 11.2867 19.238 11.1527 19.225 11.1167C19.202 11.0837 19.102 10.9827 18.622 10.9147C18.085 10.8397 17.316 10.8387 16.182 10.8387C15.58 10.8387 15.057 10.8347 14.634 10.7757C14.197 10.7157 13.765 10.5837 13.412 10.2517L13.406 10.2457L13.401 10.2407C13.048 9.89371 12.911 9.46871 12.852 9.03871C12.797 8.64471 12.798 8.15571 12.798 7.60471V7.24671C12.798 5.57971 12.796 4.41071 12.688 3.61671C12.636 3.22171 12.564 2.98971 12.495 2.85971C12.444 2.76271 12.415 2.75671 12.406 2.75471H12.404L12.403 2.75371C12.393 2.74971 12.356 2.73771 12.242 2.79371C12.1 2.86571 11.898 3.01971 11.615 3.31371Z" fill="#0066FF"/>
</svg>
