<svg width="24" height="24" viewBox="0 0 24 24" fill="none" xmlns="http://www.w3.org/2000/svg">
<path d="M14.25 21.0002C14.25 21.1991 14.171 21.3899 14.0303 21.5305C13.8897 21.6712 13.6989 21.7502 13.5 21.7502H10.5C10.3011 21.7502 10.1103 21.6712 9.96964 21.5305C9.82899 21.3899 9.74997 21.1991 9.74997 21.0002C9.74997 20.8013 9.82899 20.6105 9.96964 20.4699C10.1103 20.3292 10.3011 20.2502 10.5 20.2502H13.5C13.6989 20.2502 13.8897 20.3292 14.0303 20.4699C14.171 20.6105 14.25 20.8013 14.25 21.0002ZM12 10.5002C12.2225 10.5002 12.44 10.4342 12.625 10.3106C12.81 10.187 12.9542 10.0113 13.0393 9.80571C13.1245 9.60014 13.1468 9.37394 13.1034 9.15571C13.0599 8.93749 12.9528 8.73703 12.7955 8.5797C12.6381 8.42236 12.4377 8.31522 12.2194 8.27181C12.0012 8.2284 11.775 8.25068 11.5695 8.33583C11.3639 8.42098 11.1882 8.56517 11.0646 8.75018C10.941 8.93518 10.875 9.15269 10.875 9.37519C10.875 9.67356 10.9935 9.95971 11.2045 10.1707C11.4155 10.3817 11.7016 10.5002 12 10.5002ZM20.9643 14.6093L19.8056 19.8246C19.7506 20.0722 19.6337 20.3019 19.4659 20.4921C19.298 20.6823 19.0846 20.8268 18.8457 20.9121C18.6068 20.9975 18.3501 21.0208 18.0998 20.98C17.8494 20.9391 17.6135 20.8354 17.414 20.6786L14.8603 18.7502H9.14154L6.58591 20.6786C6.38649 20.8354 6.15056 20.9391 5.90018 20.98C5.6498 21.0208 5.39315 20.9975 5.15424 20.9121C4.91533 20.8268 4.70196 20.6823 4.53408 20.4921C4.36621 20.3019 4.24932 20.0722 4.19435 19.8246L3.0356 14.6093C2.98645 14.3854 2.98893 14.1534 3.04286 13.9307C3.09679 13.708 3.20075 13.5005 3.34685 13.3239L6.02435 10.1121C6.11422 8.9317 6.3852 7.77219 6.82779 6.67425C8.03716 3.64238 10.2028 1.74019 11.0812 1.06332C11.3442 0.859584 11.6673 0.749023 12 0.749023C12.3326 0.749023 12.6558 0.859584 12.9187 1.06332C13.7943 1.74019 15.9628 3.64238 17.1722 6.67425C17.6147 7.77219 17.8857 8.9317 17.9756 10.1121L20.6531 13.3239C20.7992 13.5005 20.9032 13.708 20.9571 13.9307C21.011 14.1534 21.0135 14.3854 20.9643 14.6093ZM9.32154 17.2502H14.6784C16.6584 13.7308 17.0287 10.3614 15.779 7.23019C14.6765 4.46644 12.6084 2.71894 12 2.25019C11.3897 2.71894 9.32154 4.46644 8.21904 7.23019C6.97122 10.3614 7.34154 13.7308 9.32154 17.2502ZM7.91529 17.7986C6.90591 15.9643 6.29341 14.1614 6.07779 12.3902L4.49997 14.2839L5.65872 19.5002L5.6756 19.488L7.91529 17.7986ZM19.5 14.2839L17.9222 12.3902C17.7084 14.1577 17.0972 15.9605 16.0884 17.7986L18.3243 19.4861L18.3412 19.4983L19.5 14.2839Z" fill="#0066FF"/>
</svg>
