<svg width="24" height="24" viewBox="0 0 24 24" fill="none" xmlns="http://www.w3.org/2000/svg">
<path d="M5.46935 9.53104L2.46935 6.53104C2.39962 6.46139 2.3443 6.37867 2.30656 6.28762C2.26882 6.19657 2.24939 6.09898 2.24939 6.00042C2.24939 5.90186 2.26882 5.80426 2.30656 5.71321C2.3443 5.62216 2.39962 5.53945 2.46935 5.46979L5.46935 2.46979C5.61009 2.32906 5.80096 2.25 5.99998 2.25C6.199 2.25 6.38987 2.32906 6.53061 2.46979C6.67134 2.61052 6.7504 2.80139 6.7504 3.00042C6.7504 3.19944 6.67134 3.39031 6.53061 3.53104L4.06029 6.00042L6.53061 8.46979C6.67134 8.61052 6.7504 8.80139 6.7504 9.00042C6.7504 9.19944 6.67133 9.39031 6.5306 9.53104C6.38987 9.67177 6.199 9.75083 5.99998 9.75083C5.80096 9.75083 5.61009 9.67177 5.46935 9.53104ZM9.21935 9.53104C9.28901 9.60077 9.37173 9.65609 9.46277 9.69384C9.55382 9.73158 9.65142 9.75101 9.74998 9.75101C9.84854 9.75101 9.94614 9.73158 10.0372 9.69384C10.1282 9.65609 10.211 9.60077 10.2806 9.53104L13.2806 6.53104C13.3503 6.46139 13.4057 6.37867 13.4434 6.28762C13.4811 6.19657 13.5006 6.09898 13.5006 6.00042C13.5006 5.90186 13.4811 5.80426 13.4434 5.71321C13.4057 5.62216 13.3503 5.53945 13.2806 5.46979L10.2806 2.46979C10.1399 2.32906 9.949 2.25 9.74998 2.25C9.55096 2.25 9.36009 2.32906 9.21935 2.46979C9.07862 2.61052 8.99956 2.80139 8.99956 3.00042C8.99956 3.19944 9.07862 3.39031 9.21935 3.53104L11.6897 6.00042L9.21935 8.46979C9.14962 8.53945 9.0943 8.62216 9.05656 8.71321C9.01882 8.80426 8.99939 8.90186 8.99939 9.00042C8.99939 9.09898 9.01882 9.19657 9.05656 9.28762C9.0943 9.37867 9.14962 9.46139 9.21935 9.53104ZM18.75 3.75042H16.5C16.3011 3.75042 16.1103 3.82943 15.9696 3.97009C15.829 4.11074 15.75 4.3015 15.75 4.50042C15.75 4.69933 15.829 4.89009 15.9696 5.03075C16.1103 5.1714 16.3011 5.25042 16.5 5.25042H18.75V18.7504H5.24998V12.7504C5.24998 12.5515 5.17096 12.3607 5.03031 12.2201C4.88966 12.0794 4.69889 12.0004 4.49998 12.0004C4.30107 12.0004 4.1103 12.0794 3.96965 12.2201C3.829 12.3607 3.74998 12.5515 3.74998 12.7504V18.7504C3.74998 19.1482 3.90801 19.5298 4.18932 19.8111C4.47062 20.0924 4.85215 20.2504 5.24998 20.2504H18.75C19.1478 20.2504 19.5293 20.0924 19.8106 19.8111C20.0919 19.5298 20.25 19.1482 20.25 18.7504V5.25042C20.25 4.85259 20.0919 4.47106 19.8106 4.18976C19.5293 3.90845 19.1478 3.75042 18.75 3.75042Z" fill="#0066FF"/>
</svg>
