<svg width="24" height="25" viewBox="0 0 24 25" fill="none" xmlns="http://www.w3.org/2000/svg">
<path d="M13.458 22.1967C18.151 21.4927 21.75 17.4437 21.75 12.5547C21.75 7.16969 17.385 2.80469 12 2.80469C6.615 2.80469 2.25 7.16969 2.25 12.5547C2.25 17.4447 5.849 21.4927 10.542 22.1967V15.3987H8.492C8.3631 15.3987 8.23949 15.3475 8.14835 15.2563C8.0572 15.1652 8.006 15.0416 8.006 14.9127V13.0697C8.006 12.8007 8.224 12.5837 8.492 12.5837H10.542L10.47 10.6407C10.47 9.69869 10.645 8.16969 11.812 7.33369C12.628 6.75069 13.235 6.64069 14.209 6.64069C15.054 6.64069 15.635 6.72469 16.019 6.78069L16.207 6.80569C16.2536 6.81177 16.2963 6.83463 16.3272 6.86997C16.3582 6.90531 16.3752 6.95072 16.375 6.99769V9.03769C16.375 9.15069 16.28 9.23769 16.17 9.23169H16.132C16.018 9.23569 15.422 9.26069 14.916 9.26069C14.026 9.26069 13.458 9.66669 13.458 11.0157V12.5837H15.65C15.95 12.5837 16.179 12.8537 16.13 13.1497L15.85 14.9927C15.8311 15.1061 15.7726 15.2091 15.6849 15.2834C15.5972 15.3578 15.486 15.3986 15.371 15.3987H13.458V22.1967Z" fill="black"/>
</svg>
