<svg width="16" height="17" viewBox="0 0 16 17" fill="none" xmlns="http://www.w3.org/2000/svg">
<g clip-path="url(#clip0_208_301)">
<path d="M7.98438 0.5625C10.1406 0.5625 10.4062 0.578125 11.25 0.609375C12.0781 0.640625 12.6562 0.78125 13.1719 0.984375C13.7031 1.1875 14.1406 1.45312 14.5781 1.89062C15.0156 2.32812 15.2812 2.76562 15.4844 3.29688C15.6875 3.8125 15.8281 4.39062 15.8594 5.21875C15.8906 6.0625 15.9062 6.32812 15.9062 8.48438C15.9062 10.6406 15.8906 10.9062 15.8594 11.75C15.8281 12.5781 15.6875 13.1562 15.4844 13.6719C15.2812 14.2031 15.0156 14.6406 14.5781 15.0781C14.1406 15.5156 13.7031 15.7812 13.1719 15.9844C12.6562 16.1875 12.0781 16.3281 11.25 16.3594C10.4062 16.3906 10.1406 16.4062 7.98438 16.4062C5.82812 16.4062 5.5625 16.3906 4.71875 16.3594C3.89062 16.3281 3.3125 16.1875 2.79688 15.9844C2.26562 15.7812 1.82812 15.5156 1.39062 15.0781C0.953125 14.6406 0.6875 14.2031 0.484375 13.6719C0.28125 13.1562 0.140625 12.5781 0.109375 11.75C0.078125 10.9062 0.0625 10.6406 0.0625 8.48438C0.0625 6.32812 0.078125 6.0625 0.109375 5.21875C0.140625 4.39062 0.28125 3.8125 0.484375 3.29688C0.6875 2.76562 0.953125 2.32812 1.39062 1.89062C1.82812 1.45312 2.26562 1.1875 2.79688 0.984375C3.3125 0.78125 3.89062 0.640625 4.71875 0.609375C5.5625 0.578125 5.82812 0.5625 7.98438 0.5625ZM7.98438 1.59375C5.73438 1.59375 5.46875 1.60938 4.59375 1.64062C3.78125 1.67188 3.32812 1.82812 3.03125 1.9375C2.26562 2.25 1.75 2.76562 1.4375 3.53125C1.32812 3.82812 1.17188 4.28125 1.14062 5.09375C1.10938 5.96875 1.09375 6.23438 1.09375 8.48438C1.09375 10.7344 1.10938 11 1.14062 11.875C1.17188 12.6875 1.32812 13.1406 1.4375 13.4375C1.75 14.2031 2.26562 14.7188 3.03125 15.0312C3.32812 15.1406 3.78125 15.2969 4.59375 15.3281C5.46875 15.3594 5.73438 15.375 7.98438 15.375C10.2344 15.375 10.5 15.3594 11.375 15.3281C12.1875 15.2969 12.6406 15.1406 12.9375 15.0312C13.7031 14.7188 14.2188 14.2031 14.5312 13.4375C14.6406 13.1406 14.7969 12.6875 14.8281 11.875C14.8594 11 14.875 10.7344 14.875 8.48438C14.875 6.23438 14.8594 5.96875 14.8281 5.09375C14.7969 4.28125 14.6406 3.82812 14.5312 3.53125C14.2188 2.76562 13.7031 2.25 12.9375 1.9375C12.6406 1.82812 12.1875 1.67188 11.375 1.64062C10.5 1.60938 10.2344 1.59375 7.98438 1.59375ZM7.98438 11.6562C9.73438 11.6562 11.1562 10.2344 11.1562 8.48438C11.1562 6.73438 9.73438 5.3125 7.98438 5.3125C6.23438 5.3125 4.8125 6.73438 4.8125 8.48438C4.8125 10.2344 6.23438 11.6562 7.98438 11.6562ZM7.98438 4.42188C10.2344 4.42188 12.0469 6.23438 12.0469 8.48438C12.0469 10.7344 10.2344 12.5469 7.98438 12.5469C5.73438 12.5469 3.92188 10.7344 3.92188 8.48438C3.92188 6.23438 5.73438 4.42188 7.98438 4.42188ZM13.1719 4.26562C13.1719 4.79688 12.7344 5.20312 12.2031 5.20312C11.6719 5.20312 11.2656 4.79688 11.2656 4.26562C11.2656 3.73438 11.6719 3.29688 12.2031 3.29688C12.7344 3.29688 13.1719 3.73438 13.1719 4.26562Z" fill="black"/>
</g>
<defs>
<clipPath id="clip0_208_301">
<rect width="16" height="16" fill="white" transform="translate(0 0.5)"/>
</clipPath>
</defs>
</svg>
