<svg width="25" height="25" viewBox="0 0 25 25" fill="none" xmlns="http://www.w3.org/2000/svg">
<path d="M20.1667 3.5H4.82875C4.09525 3.5 3.5 4.08125 3.5 4.797V20.2013C3.5 20.918 4.09525 21.5 4.82875 21.5H20.1667C20.9007 21.5 21.5 20.918 21.5 20.2013V4.797C21.5 4.08125 20.9007 3.5 20.1667 3.5ZM8.8385 18.8385H6.1675V10.2487H8.8385V18.8385ZM7.503 9.07425C7.2997 9.07425 7.09838 9.03419 6.91057 8.95636C6.72275 8.87853 6.55211 8.76445 6.4084 8.62064C6.26469 8.47684 6.15072 8.30613 6.07301 8.11826C5.9953 7.93039 5.95537 7.72905 5.9555 7.52575C5.9555 7.11536 6.11853 6.72178 6.40872 6.43159C6.6989 6.1414 7.09249 5.97837 7.50287 5.97837C7.91326 5.97837 8.30685 6.1414 8.59703 6.43159C8.88722 6.72178 9.05025 7.11536 9.05025 7.52575C9.05025 7.93622 8.88728 8.3299 8.59715 8.62026C8.30702 8.91063 7.91347 9.07392 7.503 9.07425ZM18.8375 18.8385H16.1707V14.6615C16.1707 13.665 16.1512 12.3837 14.783 12.3837C13.3935 12.3837 13.1818 13.469 13.1818 14.5892V18.8388H10.513V10.2487H13.0743V11.4218H13.1108C13.4672 10.7467 14.3383 10.0345 15.6372 10.0345C18.3387 10.0345 18.8377 11.813 18.8377 14.1267L18.8375 18.8385Z" fill="black"/>
</svg>
