<svg width="67" height="45" viewBox="0 0 67 45" fill="none" xmlns="http://www.w3.org/2000/svg">
<path fill-rule="evenodd" clip-rule="evenodd" d="M47.6129 8.09213C47.6129 8.61313 47.1906 9.03549 46.6696 9.03549H20.3306C19.8096 9.03549 19.3872 8.61313 19.3872 8.09213C19.3872 7.57113 19.8096 7.14877 20.3306 7.14877H46.6694C47.1906 7.14877 47.6129 7.57113 47.6129 8.09213ZM66.2342 25.3634C66.0404 27.9954 64.0267 29.9804 61.5505 29.9804H5.44948C2.97316 29.9804 0.959626 27.9954 0.765563 25.3633C0.0265083 15.3604 0.029608 8.27743 0.775401 3.70928C1.0766 1.86272 2.37332 0.62207 4.00223 0.62207H62.9975C64.6262 0.62207 65.923 1.86272 66.2243 3.70928C66.9703 8.27743 66.9735 15.3604 66.2342 25.3634ZM57.7241 22.7704C57.7241 22.1202 57.1952 21.5912 56.5449 21.5912H10.4551C9.80483 21.5912 9.27588 22.1202 9.27588 22.7704V28.0936H57.7241V22.7704ZM64.3625 4.01331C64.2492 3.31927 63.8238 2.50879 62.9976 2.50879H4.00236C3.17612 2.50879 2.7508 3.31927 2.63746 4.01318C1.91592 8.43309 1.91916 15.3712 2.6473 25.2245C2.76966 26.8871 3.94819 28.0936 5.44948 28.0936H7.38916V22.7704C7.38916 21.0799 8.76458 19.7045 10.4551 19.7045H56.5449C58.2354 19.7045 59.6108 21.0799 59.6108 22.7704V28.0936H61.5507C63.0518 28.0936 64.2303 26.8871 64.3527 25.2246C65.0808 15.3714 65.0841 8.43309 64.3625 4.01331ZM33.5 34.2929C32.979 34.2929 32.5566 34.7152 32.5566 35.2362V43.435C32.5566 43.956 32.979 44.3783 33.5 44.3783C34.021 44.3783 34.4434 43.956 34.4434 43.435V35.2362C34.4434 34.7152 34.021 34.2929 33.5 34.2929ZM25.3971 34.2937C24.8766 34.315 24.4719 34.7544 24.4932 35.2749C24.6103 38.1303 23.7989 40.8929 22.2667 42.8542C21.946 43.2647 22.0189 43.8576 22.4295 44.1783C22.6019 44.313 22.8065 44.3782 23.0096 44.3782C23.29 44.3782 23.5676 44.2537 23.7536 44.0155C25.5569 41.707 26.5135 38.493 26.3783 35.1974C26.357 34.6769 25.9167 34.273 25.3971 34.2937ZM16.9536 34.2942C16.4341 34.2659 15.9895 34.667 15.9625 35.1872C15.8136 38.0453 14.7447 40.7518 13.0299 42.6129C12.6768 42.996 12.7012 43.5928 13.0844 43.9459C13.2658 44.113 13.4949 44.1956 13.7233 44.1956C13.9777 44.1956 14.2313 44.0933 14.4172 43.8914C16.4251 41.7124 17.6751 38.5757 17.8464 35.2855C17.8737 34.7651 17.4738 34.3213 16.9536 34.2942ZM42.5069 35.2749C42.5282 34.7544 42.1235 34.315 41.6031 34.2937C41.0812 34.2729 40.6431 34.6771 40.6218 35.1975C40.4865 38.4928 41.4434 41.707 43.2467 44.0157C43.4328 44.2539 43.7103 44.3783 43.9907 44.3783C44.1938 44.3783 44.3982 44.3131 44.5707 44.1785C44.9814 43.8577 45.0543 43.2649 44.7335 42.8544C43.2012 40.8927 42.3898 38.1302 42.5069 35.2749ZM51.0377 35.1872C51.0106 34.6668 50.5665 34.266 50.0467 34.2942C49.5263 34.3213 49.1266 34.7651 49.1537 35.2853C49.3251 38.5754 50.5752 41.7121 52.583 43.8911C52.7689 44.093 53.0226 44.1953 53.2769 44.1953C53.5053 44.1953 53.7345 44.1128 53.9158 43.9456C54.2989 43.5926 54.3233 42.9958 53.9702 42.6126C52.2557 40.7519 51.1868 38.0453 51.0377 35.1872ZM56.3727 6.81172C55.6676 6.81172 55.0924 7.3869 55.0924 8.092C55.0924 8.79722 55.6676 9.37227 56.3727 9.37227C57.0779 9.37227 57.653 8.79709 57.653 8.092C57.653 7.3869 57.0779 6.81172 56.3727 6.81172Z" fill="#023047"/>
</svg>
