<svg width="24" height="25" viewBox="0 0 24 25" fill="none" xmlns="http://www.w3.org/2000/svg">
<path d="M13.292 15.1299C12.924 15.3469 12.12 15.4129 10.591 13.8889C9.06201 12.3649 9.12701 11.5629 9.34401 11.1959C9.89801 11.1399 10.427 10.7709 10.92 10.2799C11.283 9.91694 10.989 9.03594 10.261 8.31094C9.53401 7.58694 8.65101 7.29294 8.28601 7.65494C5.94501 9.98894 7.11701 13.0509 9.27401 15.2009C11.46 17.3809 14.446 18.5749 16.844 16.1849C17.208 15.8229 16.914 14.9409 16.186 14.2169C15.459 13.4919 14.575 13.1979 14.211 13.5609C13.719 14.0509 13.348 14.5779 13.292 15.1299Z" fill="black"/>
<path fill-rule="evenodd" clip-rule="evenodd" d="M12 4.92751C10.6117 4.92738 9.25015 5.30893 8.06408 6.03043C6.87801 6.75194 5.91313 7.78563 5.27491 9.01851C4.63669 10.2514 4.34969 11.636 4.4453 13.021C4.54092 14.406 5.01545 15.738 5.81703 16.8715C5.89152 16.9765 5.93773 17.0989 5.95122 17.2269C5.96471 17.355 5.94501 17.4843 5.89403 17.6025L4.82003 20.0855L7.96703 19.1725C8.15179 19.1188 8.35013 19.1381 8.52103 19.2265C9.53951 19.7528 10.6642 20.0409 11.8102 20.0692C12.9563 20.0975 14.0938 19.8652 15.137 19.3898C16.1802 18.9144 17.1019 18.2083 17.8324 17.3248C18.563 16.4413 19.0834 15.4035 19.3544 14.2896C19.6254 13.1757 19.64 12.0148 19.397 10.8944C19.1539 9.77404 18.6597 8.72349 17.9515 7.82197C17.2433 6.92046 16.3397 6.19151 15.3087 5.69012C14.2778 5.18872 13.1464 4.92797 12 4.92751ZM2.92803 12.4995C2.9285 10.5335 3.56763 8.62082 4.7492 7.04947C5.93077 5.47812 7.59083 4.33313 9.47944 3.78688C11.3681 3.24064 13.383 3.3227 15.221 4.02072C17.0589 4.71874 18.6203 5.99493 19.6702 7.65716C20.7201 9.3194 21.2016 11.2777 21.0422 13.2373C20.8828 15.1968 20.0911 17.0515 18.7864 18.5222C17.4816 19.9929 15.7344 21 13.8078 21.3917C11.8813 21.7835 9.87952 21.5388 8.10403 20.6945L3.71003 21.9695C3.5734 22.0091 3.42835 22.009 3.29179 21.9692C3.15522 21.9294 3.03278 21.8516 2.93875 21.7449C2.84472 21.6382 2.78297 21.507 2.76071 21.3665C2.73845 21.226 2.75659 21.0821 2.81303 20.9515L4.35503 17.3835C3.42104 15.926 2.92571 14.2306 2.92803 12.4995Z" fill="black"/>
</svg>
